<svg width="69" height="17" viewBox="0 0 69 17" fill="none" xmlns="http://www.w3.org/2000/svg">
<g id="Frame" clip-path="url(#clip0_1707_4236)">
<g id="Group">
<path id="Vector" d="M43.2535 0.986816C42.6299 0.986816 42.0062 0.986816 41.3826 0.986816C40.8759 2.27739 40.4764 3.67716 39.9795 4.96773C40.5739 4.96773 41.178 4.96773 41.7724 4.96773C42.357 3.72679 42.7273 2.27739 43.2535 0.986816Z" fill="#474C54"/>
<path id="Vector_2" d="M9.94858 3.1709H0V6.03001H3.0596V11.6887V16.5928H6.47973V11.6887V6.03001H9.54908L9.94858 3.1709Z" fill="#474C54"/>
<path id="Vector_3" d="M37.5336 3.1709H27.5947V6.03001H30.6543V11.6887V16.5928H34.0745V6.03001H37.1341L37.5336 3.1709Z" fill="#474C54"/>
<path id="Vector_4" d="M49.3825 7.60861C49.363 7.01296 49.2363 6.62579 49.1778 6.43717L46.1572 6.9534C46.4203 8.11491 46.4593 9.02823 46.4593 10.5571V11.6888V16.593H49.743V11.6888V9.79265C49.8892 9.4849 50.2204 9.0878 50.8928 9.0878C51.0584 9.0878 51.4189 9.10765 51.8574 9.35584L52.6175 6.65557C52.14 6.42724 51.6918 6.36768 51.3897 6.36768C50.4738 6.36768 49.8697 6.89383 49.3825 7.60861Z" fill="#474C54"/>
<path id="Vector_5" d="M24.5648 11.3215L27.488 6.65557H23.6391L23.2007 7.50933C22.996 7.8965 22.7622 8.6212 22.7037 9.14736C22.5576 8.43258 22.2263 7.81708 22.1191 7.61853L21.3785 6.30811L17.8318 7.00303L20.6283 11.4108L20.4529 11.6789L17.2666 16.583H21.2909L21.8755 15.5406C22.1288 15.1138 22.314 14.8457 22.5381 13.9225H22.5771C22.5965 14.0416 22.655 14.2501 23.0155 15.0343L23.7073 16.5731H27.8875L24.8084 11.6689L24.5648 11.3215ZM22.5965 14.0515C22.6063 14.1012 22.6258 14.1607 22.6647 14.2401C22.6258 14.1607 22.6063 14.1012 22.5965 14.0515Z" fill="#474C54"/>
<path id="Vector_6" d="M43.8383 7.75736C43.3998 7.24113 42.5424 6.40723 40.73 6.40723C39.892 6.40723 38.4012 6.54621 37.3293 7.78714C36.4134 8.82952 36.1211 10.1995 36.1211 11.6787C36.1211 11.768 36.1211 11.8574 36.1211 11.9467C36.1601 13.3068 36.5303 14.7364 37.6509 15.7291C38.635 16.6027 39.8433 16.8013 40.7787 16.831C40.8372 16.831 40.9054 16.831 40.9638 16.831C41.8116 16.831 43.3219 16.7218 44.9296 15.4114L43.6532 13.4954C42.9126 14.101 41.9772 14.4782 41.1587 14.4981C41.1295 14.4981 41.11 14.4981 41.0808 14.4981C40.7495 14.4981 40.1161 14.4187 39.7556 13.7833C39.5899 13.4756 39.512 12.9891 39.512 12.6814H44.9589V11.8574C44.9589 11.7978 44.9589 11.7383 44.9589 11.6886C44.9394 9.49466 44.4327 8.47214 43.8383 7.75736ZM39.512 10.3584C39.512 10.0109 39.5997 9.37553 39.892 9.04793C40.0966 8.8196 40.3695 8.74018 40.652 8.74018C40.9541 8.74018 41.3438 8.8196 41.568 9.37553C41.6849 9.68329 41.7044 10.0307 41.7044 10.4179V10.5172H39.512V10.3584Z" fill="#474C54"/>
<path id="Vector_7" d="M58.3956 6.36768C57.4797 6.36768 56.8853 6.8839 56.3884 7.59868C56.3689 7.00303 56.2422 6.61586 56.1837 6.42724L53.1631 6.94347C53.4262 8.10498 53.4652 9.01831 53.4652 10.5471V11.6789V16.583H56.7489V11.6789V9.79265C56.895 9.4849 57.2263 9.0878 57.8987 9.0878C58.0643 9.0878 58.4248 9.10765 58.8633 9.35584L59.6234 6.65557C59.1459 6.42724 58.6977 6.36768 58.3956 6.36768Z" fill="#474C54"/>
<path id="Vector_8" d="M66.6198 17L66.6783 16.9404H66.4932C66.5321 16.9603 66.5711 16.9801 66.6198 17Z" fill="#474C54"/>
<path id="Vector_9" d="M16.0682 13.4954C15.3276 14.101 14.3922 14.4783 13.5737 14.4981C13.5445 14.4981 13.525 14.4981 13.4958 14.4981C13.1547 14.4981 12.5214 14.4187 12.1706 13.7833C12.005 13.4756 11.927 12.9891 11.927 12.6814H17.3739V11.8574C17.3739 11.7978 17.3739 11.7383 17.3739 11.6886C17.3446 9.49467 16.8477 8.47214 16.2533 7.75736C15.8148 7.24113 14.9476 6.40723 13.145 6.40723C12.307 6.40723 10.8162 6.54621 9.74436 7.78714C8.82843 8.82953 8.52637 10.2094 8.52637 11.6886C8.52637 11.778 8.52637 11.8673 8.52637 11.9567C8.56534 13.3167 8.93561 14.7463 10.0562 15.739C11.0403 16.6127 12.2388 16.8112 13.184 16.841C13.2424 16.841 13.3106 16.841 13.3691 16.841C14.2168 16.841 15.7271 16.7318 17.3349 15.4214L16.0682 13.4954ZM11.927 10.3584C11.927 10.0109 12.0147 9.37554 12.307 9.04793C12.5116 8.8196 12.7845 8.74018 13.0573 8.74018C13.3691 8.74018 13.7589 8.8196 13.983 9.37554C14.0999 9.68329 14.1194 10.0308 14.1194 10.4179V10.5172H11.927V10.3584Z" fill="#474C54"/>
<path id="Vector_10" d="M68.4218 15.0739C67.9444 14.7264 67.7397 14.2201 67.7397 13.277C67.7397 13.2472 67.7397 13.2075 67.7397 13.1778L67.7592 11.6787L67.7787 9.75278C67.7787 9.46489 67.7787 8.7104 67.6228 8.21403C67.4961 7.78714 67.1746 7.25106 66.4146 6.86389C65.6156 6.46679 64.7678 6.40723 64.1052 6.40723C63.0724 6.40723 62.2734 6.63556 61.6887 6.85396C61.1041 7.06244 60.4025 7.39005 59.7205 7.81693L60.9092 9.89177C60.9872 9.8322 61.7667 9.23655 62.6339 8.98837C63.0139 8.88909 63.3842 8.84938 63.696 8.84938C63.8616 8.84938 64.1832 8.84938 64.3586 9.07771C64.3878 9.13728 64.4853 9.28619 64.4853 9.77264V10.3981C64.3196 10.3881 64.1247 10.3782 63.9201 10.3782C63.0724 10.3782 61.9421 10.5172 61.0164 11.1029C60.7436 11.2816 60.5195 11.4702 60.3246 11.6787C59.8276 12.2346 59.6133 12.9097 59.6133 13.7138C59.6133 14.647 59.9348 15.4511 60.4707 15.9872C60.9092 16.4141 61.6498 16.8311 62.8678 16.8311C63.7252 16.8311 64.6704 16.6424 65.3817 16.0071C65.6253 16.434 65.9858 16.6921 66.4633 16.9303H66.6484L68.3926 15.203L68.4705 15.1335C68.4705 15.1136 68.4511 15.0938 68.4218 15.0739ZM64.495 14.2102C64.4073 14.2996 64.3099 14.3591 64.1929 14.4187C64.0468 14.4981 63.8909 14.5279 63.7252 14.5279C63.4719 14.5279 63.1601 14.4485 62.9652 14.1407C62.858 13.9521 62.819 13.7436 62.819 13.5451C62.819 13.5153 62.819 13.4855 62.819 13.4458C62.8288 13.2472 62.9067 12.9196 63.277 12.6913C63.5011 12.5424 63.8227 12.4729 64.2124 12.463C64.2709 12.463 64.3294 12.463 64.3878 12.463H64.495V14.2102Z" fill="#474C54"/>
</g>
</g>
<defs>
<clipPath id="clip0_1707_4236">
<rect width="68.5" height="16.013" fill="white" transform="translate(0 0.986816)"/>
</clipPath>
</defs>
</svg>
