<svg width="37" height="36" viewBox="0 0 37 36" fill="none" xmlns="http://www.w3.org/2000/svg">
<g id="vuesax/linear/medal-star">
<g id="medal-star">
<path id="Vector" d="M29 13.5002C29 15.6752 28.355 17.6702 27.245 19.3352C25.625 21.7352 23.06 23.4302 20.075 23.8652C19.565 23.9552 19.04 24.0002 18.5 24.0002C17.96 24.0002 17.435 23.9552 16.925 23.8652C13.94 23.4302 11.375 21.7352 9.755 19.3352C8.645 17.6702 8 15.6752 8 13.5002C8 7.69518 12.695 3.00018 18.5 3.00018C24.305 3.00018 29 7.69518 29 13.5002Z" stroke="#0B1524" stroke-width="2" stroke-linecap="round" stroke-linejoin="round"/>
<path id="Vector_2" d="M32.3756 27.7049L29.9006 28.2899C29.3456 28.4249 28.9106 28.8449 28.7906 29.3999L28.2656 31.6049C27.9806 32.8049 26.4506 33.1649 25.6556 32.2199L18.5006 23.9999L11.3456 32.2349C10.5506 33.1799 9.02061 32.8199 8.73561 31.6199L8.21061 29.4149C8.07561 28.8599 7.64061 28.4249 7.10061 28.3049L4.62561 27.7199C3.48561 27.4499 3.08061 26.0249 3.90561 25.1999L9.75561 19.3499C11.3756 21.7499 13.9406 23.4449 16.9256 23.8799C17.4356 23.9699 17.9606 24.0149 18.5006 24.0149C19.0406 24.0149 19.5656 23.9699 20.0756 23.8799C23.0606 23.4449 25.6256 21.7499 27.2456 19.3499L33.0956 25.1999C33.9206 26.0099 33.5156 27.4349 32.3756 27.7049Z" stroke="#0B1524" stroke-width="2" stroke-linecap="round" stroke-linejoin="round"/>
<path id="Vector_3" d="M19.37 8.96982L20.255 10.7398C20.375 10.9798 20.69 11.2198 20.975 11.2648L22.58 11.5348C23.6 11.6998 23.84 12.4498 23.105 13.1848L21.86 14.4298C21.65 14.6398 21.53 15.0448 21.605 15.3448L21.965 16.8898C22.25 18.1048 21.605 18.5848 20.525 17.9398L19.025 17.0548C18.755 16.8898 18.305 16.8898 18.035 17.0548L16.535 17.9398C15.455 18.5698 14.81 18.1048 15.095 16.8898L15.455 15.3448C15.515 15.0598 15.41 14.6398 15.2 14.4298L13.955 13.1848C13.22 12.4498 13.46 11.7148 14.48 11.5348L16.085 11.2648C16.355 11.2198 16.67 10.9798 16.79 10.7398L17.675 8.96982C18.11 8.00982 18.89 8.00982 19.37 8.96982Z" stroke="#0B1524" stroke-width="2" stroke-linecap="round" stroke-linejoin="round"/>
</g>
</g>
</svg>
