<svg width="37" height="36" viewBox="0 0 37 36" fill="none" xmlns="http://www.w3.org/2000/svg">
<g id="Star">
<path id="Star 2" d="M17.3461 2.41593C17.8693 1.5465 19.1298 1.5465 19.653 2.41592L24.4831 10.4419C24.6711 10.7542 24.9777 10.977 25.3328 11.0592L34.4585 13.1727C35.4471 13.4017 35.8366 14.6005 35.1714 15.3668L29.0308 22.4406C28.7919 22.7159 28.6748 23.0763 28.7063 23.4395L29.5162 32.7717C29.6039 33.7826 28.5842 34.5235 27.6498 34.1276L19.0247 30.4736C18.689 30.3314 18.31 30.3314 17.9744 30.4736L9.34924 34.1276C8.41491 34.5235 7.39516 33.7826 7.48289 32.7717L8.2928 23.4395C8.32432 23.0763 8.20721 22.7159 7.96824 22.4406L1.8277 15.3668C1.16251 14.6005 1.55202 13.4017 2.54058 13.1727L11.6663 11.0592C12.0214 10.977 12.328 10.7542 12.516 10.4419L17.3461 2.41593Z" stroke="#0B1524" stroke-width="2"/>
</g>
</svg>
