<svg width="37" height="36" viewBox="0 0 37 36" fill="none" xmlns="http://www.w3.org/2000/svg">
<g id="vuesax/linear/sun">
<g id="sun">
<path id="Vector" d="M18.5 27.7498C23.8848 27.7498 28.25 23.3846 28.25 17.9998C28.25 12.615 23.8848 8.24982 18.5 8.24982C13.1152 8.24982 8.75 12.615 8.75 17.9998C8.75 23.3846 13.1152 27.7498 18.5 27.7498Z" stroke="#0B1524" stroke-width="2" stroke-linecap="round" stroke-linejoin="round"/>
<path id="Vector_2" d="M29.21 28.7102L29.015 28.5152M29.015 7.48518L29.21 7.29018L29.015 7.48518ZM7.79 28.7102L7.985 28.5152L7.79 28.7102ZM18.5 3.12018V3.00018V3.12018ZM18.5 33.0002V32.8802V33.0002ZM3.62 18.0002H3.5H3.62ZM33.5 18.0002H33.38H33.5ZM7.985 7.48518L7.79 7.29018L7.985 7.48518Z" stroke="#0B1524" stroke-width="2" stroke-linecap="round" stroke-linejoin="round"/>
</g>
</g>
</svg>
