<svg width="25" height="24" viewBox="0 0 25 24" fill="none" xmlns="http://www.w3.org/2000/svg">
<g id="Frame" clip-path="url(#clip0_1707_4208)">
<path id="Vector" d="M15.2 14.7C13 16.97 12.84 19.8 12.65 26C18.43 26 22.42 25.98 24.48 23.98C26.48 21.92 26.5 17.74 26.5 12.15C20.3 12.35 17.47 12.5 15.2 14.7ZM-1.5 12.15C-1.5 17.74 -1.48 21.92 0.52 23.98C2.58 25.98 6.57 26 12.35 26C12.15 19.8 12 16.97 9.8 14.7C7.53 12.5 4.7 12.34 -1.5 12.15ZM12.35 -2C6.58 -2 2.58 -1.98 0.52 0.02C-1.48 2.08 -1.5 6.26 -1.5 11.85C4.7 11.65 7.53 11.5 9.8 9.3C12 7.03 12.16 4.2 12.35 -2ZM15.2 9.3C13 7.03 12.84 4.2 12.65 -2C18.43 -2 22.42 -1.98 24.48 0.02C26.48 2.08 26.5 6.26 26.5 11.85C20.3 11.65 17.47 11.5 15.2 9.3Z" fill="#050C10"/>
<path id="Vector_2" d="M26.5 12.15V11.85C20.3 11.65 17.47 11.5 15.2 9.3C13 7.03 12.84 4.2 12.65 -2H12.35C12.15 4.2 12 7.03 9.8 9.3C7.53 11.5 4.7 11.66 -1.5 11.85V12.15C4.7 12.35 7.53 12.5 9.8 14.7C12 16.97 12.16 19.8 12.35 26H12.65C12.85 19.8 13 16.97 15.2 14.7C17.47 12.5 20.3 12.34 26.5 12.15Z" fill="white"/>
</g>
<defs>
<clipPath id="clip0_1707_4208">
<rect width="28" height="28" fill="white" transform="translate(-1.5 -2)"/>
</clipPath>
</defs>
</svg>
