<svg width="25" height="24" viewBox="0 0 25 24" fill="none" xmlns="http://www.w3.org/2000/svg">
<g id="icon">
<g id="Union">
<path d="M16.918 13.8465C17.0761 13.9216 17.183 13.9723 17.2287 14.0471C17.2853 14.14 17.2853 14.5862 17.0964 15.1069C16.9073 15.6275 16.001 16.1027 15.5651 16.1666C15.1743 16.2241 14.6797 16.248 14.1363 16.0783C13.8068 15.9757 13.3843 15.8385 12.8431 15.6088C10.7164 14.7066 9.27913 12.6814 9.00762 12.2989C8.98861 12.2721 8.97532 12.2534 8.9679 12.2436L8.96609 12.2412C8.84609 12.0839 8.04163 11.0295 8.04163 9.93814C8.04163 8.91156 8.5549 8.37347 8.79116 8.12579C8.80735 8.10882 8.82224 8.09322 8.83557 8.07891C9.0435 7.85578 9.28928 7.8 9.44049 7.8C9.59171 7.8 9.74311 7.80138 9.87527 7.8079C9.89157 7.8087 9.90854 7.8086 9.92608 7.8085C10.0583 7.80774 10.2231 7.80679 10.3857 8.19047C10.4482 8.33817 10.5398 8.55716 10.6364 8.78812C10.8315 9.25495 11.0471 9.77065 11.0851 9.84529C11.1418 9.95685 11.1796 10.087 11.104 10.2358C11.0926 10.2581 11.0821 10.2791 11.0721 10.2992C11.0153 10.4131 10.9736 10.4969 10.8772 10.6075C10.8392 10.651 10.8 10.6979 10.7609 10.7448C10.6828 10.8381 10.6048 10.9315 10.5369 10.998C10.4233 11.1091 10.3051 11.2297 10.4374 11.4528C10.5697 11.6759 11.025 12.4057 11.6994 12.9967C12.4243 13.632 13.0544 13.9005 13.3737 14.0366C13.4361 14.0631 13.4866 14.0847 13.5237 14.1029C13.7504 14.2145 13.8828 14.1958 14.0151 14.0471C14.1474 13.8984 14.5822 13.3963 14.7334 13.1732C14.8846 12.9502 15.0359 12.9874 15.2437 13.0617C15.4517 13.1361 16.567 13.6752 16.7939 13.7868C16.8382 13.8086 16.8796 13.8282 16.918 13.8465Z" fill="white"/>
<path fill-rule="evenodd" clip-rule="evenodd" d="M12.655 20.8453H12.6513C11.1318 20.8448 9.63883 20.4703 8.31278 19.7597L3.5 21L4.78798 16.3781C3.99349 15.0254 3.57544 13.4909 3.57612 11.9189C3.57811 7.00107 7.65084 3 12.655 3C15.0836 3.00103 17.3632 3.92992 19.0772 5.61588C20.7913 7.30177 21.7347 9.54271 21.7338 11.9259C21.7317 16.8427 17.6606 20.8433 12.655 20.8453ZM8.53559 18.1446L8.81113 18.3052C9.9697 18.9807 11.2978 19.3381 12.6518 19.3386H12.6549C16.8139 19.3386 20.199 16.0128 20.2007 11.925C20.2015 9.94412 19.4174 8.08154 17.9926 6.68023C16.568 5.27891 14.6733 4.50682 12.6578 4.50614C8.49555 4.50614 5.11044 7.83155 5.10877 11.919C5.1082 13.3199 5.50714 14.684 6.26249 15.8644L6.44191 16.1448L5.67961 18.8805L8.53559 18.1446Z" fill="white"/>
</g>
</g>
</svg>
