<svg width="28" height="29" viewBox="0 0 28 29" fill="none" xmlns="http://www.w3.org/2000/svg">
<g id="Zoom in">
<path id="Line" d="M21.6396 22.4622L26.4995 27.3217" stroke="white" stroke-width="2" stroke-linecap="round" stroke-linejoin="round"/>
<path id="Subtract" fill-rule="evenodd" clip-rule="evenodd" d="M11.743 23.1645C17.9524 23.1645 22.986 18.1308 22.986 11.9215C22.986 5.71214 17.9524 0.678467 11.743 0.678467C5.53367 0.678467 0.5 5.71214 0.5 11.9215C0.5 18.1308 5.53367 23.1645 11.743 23.1645ZM12.7971 7.70535C12.7971 7.12323 12.3251 6.65132 11.743 6.65132C11.1609 6.65132 10.689 7.12323 10.689 7.70535V10.8675H7.52689C6.94476 10.8675 6.47285 11.3394 6.47285 11.9215C6.47285 12.5036 6.94476 12.9755 7.52689 12.9755H10.689V16.1376C10.689 16.7197 11.1609 17.1916 11.743 17.1916C12.3251 17.1916 12.7971 16.7197 12.7971 16.1376V12.9755H15.9591C16.5413 12.9755 17.0132 12.5036 17.0132 11.9215C17.0132 11.3394 16.5413 10.8675 15.9591 10.8675H12.7971V7.70535Z" fill="white"/>
</g>
</svg>
